<?xml version="1.0" standalone="no"?>
<!DOCTYPE svg PUBLIC "-//W3C//DTD SVG 20010904//EN"
 "http://www.w3.org/TR/2001/REC-SVG-20010904/DTD/svg10.dtd">
<svg version="1.0" xmlns="http://www.w3.org/2000/svg"
 width="512.000000pt" height="512.000000pt" viewBox="0 0 512.000000 512.000000"
 preserveAspectRatio="xMidYMid meet">
<metadata>
Created by potrace 1.11, written by Peter Selinger 2001-2013
</metadata>
<g transform="translate(0.000000,512.000000) scale(0.100000,-0.100000)"
fill="#000000" stroke="none">
<path d="M2738 4904 c-2 -1 -23 -5 -48 -9 -67 -9 -206 -53 -285 -89 -69 -32
-325 -185 -455 -272 -140 -92 -278 -259 -303 -364 -5 -19 -14 -26 -33 -28 -64
-5 -154 -64 -184 -121 -16 -31 -20 -134 -7 -177 22 -73 115 -149 204 -168 25
-6 33 -14 38 -39 13 -62 69 -203 118 -297 49 -96 119 -205 213 -335 49 -67
113 -200 102 -211 -3 -3 -28 -7 -54 -9 -84 -6 -202 -18 -324 -30 -97 -11 -170
-42 -235 -100 -16 -15 -48 -35 -70 -45 -22 -9 -76 -34 -120 -55 -44 -20 -90
-41 -102 -46 -50 -19 -380 -29 -518 -14 -99 10 -159 6 -202 -12 -121 -50 -234
-206 -263 -360 -5 -32 -12 -67 -14 -78 -2 -11 -7 -45 -11 -75 -3 -30 -8 -66
-10 -80 -7 -42 -17 -222 -17 -280 1 -81 19 -267 27 -280 2 -4 7 -21 10 -39 3
-18 12 -51 21 -74 8 -23 16 -49 18 -56 1 -8 10 -19 19 -23 10 -4 25 -12 34
-16 11 -5 21 -33 30 -76 27 -133 88 -255 153 -308 33 -26 43 -28 140 -31 58
-2 119 0 135 4 17 5 46 11 65 14 51 8 92 57 119 143 l24 73 41 -6 c23 -4 77
-15 121 -25 44 -10 97 -21 119 -24 21 -4 41 -8 45 -10 3 -2 22 -7 41 -10 19
-3 100 -19 180 -36 155 -32 319 -66 360 -74 14 -3 57 -11 95 -19 39 -8 115
-24 170 -35 55 -12 142 -30 193 -42 51 -11 110 -23 130 -26 20 -3 44 -7 52 -9
23 -7 341 -73 380 -79 19 -3 49 -10 67 -15 17 -5 33 -7 36 -5 2 3 12 -17 22
-43 47 -125 120 -230 205 -297 105 -83 195 -108 398 -111 143 -3 252 15 323
51 57 28 72 48 94 127 l17 58 41 -7 c23 -4 51 -8 62 -9 11 -2 67 -10 125 -19
58 -8 137 -18 175 -22 39 -3 84 -8 100 -10 132 -16 485 -22 540 -10 11 2 23 5
28 5 4 1 7 579 7 1285 l0 1284 -37 16 c-21 9 -46 21 -55 27 -34 18 -223 91
-323 124 -220 74 -531 132 -682 128 -18 0 -23 6 -24 26 -3 77 -17 199 -23 209
-2 4 -7 29 -10 55 -8 60 -43 206 -63 267 -23 70 -44 111 -84 165 -52 72 -75
121 -119 253 -43 130 -88 220 -164 332 l-51 75 23 59 c47 117 34 214 -37 277
-86 78 -207 76 -297 -4 -22 -18 -23 -18 -85 16 -103 57 -180 78 -270 76 -43
-1 -80 -3 -81 -5z"/>
<path d="M500 3072 c0 -4 46 -27 103 -51 56 -24 147 -63 202 -87 198 -86 410
-176 425 -181 10 -4 12 -3 5 5 -8 9 -337 154 -515 227 -30 12 -92 39 -137 58
-46 20 -83 33 -83 29z"/>
<path d="M0 1564 c0 -7 66 -34 82 -33 7 0 -5 9 -27 19 -43 20 -55 23 -55 14z"/>
</g>
</svg>
